<?xml version="1.0" encoding="utf-8"?>
<!-- Generator: Adobe Illustrator 19.0.0, SVG Export Plug-In . SVG Version: 6.00 Build 0)  -->
<svg version="1.1" id="Layer_2" xmlns="http://www.w3.org/2000/svg" xmlns:xlink="http://www.w3.org/1999/xlink" x="0px" y="0px"
	 viewBox="0 0 80 80" style="enable-background:new 0 0 80 80;" xml:space="preserve">
<style type="text/css">
	.kruunu{fill:#F1B71E;}
	.st0, .st1, .st3, .kruunu{fill:#fff;}
	.st2{fill:#fff;}
</style>
<path class="st0" d="M10.58,55.4l-4.7-4.11l-0.95,0.14v0.72c-0.29,0.43-0.48,0.42-0.48,0.96v2.4c0,0.75,0.76,1.44,1.68,1.44h1.2
	C9.2,56.96,9.55,56.09,10.58,55.4z"/>
<polygon class="st1" points="41.89,35.73 41.84,34.04 43.77,35.6 43.18,35.85 "/>
<path class="st1" d="M42.13,30.64l1.03-2.46l1.62,1.74l1.43-1.71c-0.78-1.64-5.69-0.14-6.31,0.03L42.13,30.64z"/>
<path class="st1" d="M43.46,33.5c1.96,0,2.86,1.69,4.56,1.69h0.51c0.95,0,0.99-0.4,0.99-1.28c0-1.66-3.85-2.55-5.73-2.55
	c-2.67,0-7.65-0.55-7.71-4.19c-0.35-0.68-0.64-0.15-0.96,0C29.58,33.62,39.65,33.4,43.46,33.5z"/>
<path class="st2" d="M10.92,40.88l-2.27,1.41c-0.13-0.21-4.45,5.48-4.45,6.99v0.48c0,0.88,0.37,1.16,0.72,1.68l0.72,0l4.8,4.08
	l5.04,2.4v0.72c0,0.83-0.18,0.93-0.24,1.68l4.77-0.34c1.75,0.24,3.2-0.08,2.67,1.78l0,1.24l4.56-0.28h3.12v1.68
	c0,0.55,0.17,0.72,0.72,0.72h0.72c1.06,0,2.41-0.81,3.84-0.96h1.68c2.43,0,4.17,0.15,6.49,0.23c1.13,0.04,5.26,1.45,5.27,1.45
	c2,0,3.15-2.62,5.04-3.12l0.19,0.18l-3.93,3.99l-7.79-1.56l-3.83,0.02c-1.3,0-0.47,1.89-0.47,3.11c0,1.24-0.22,3.37,0.95,3.37
	l1.02,0.01l-0.3,1.67c0.36,0.51,0.48,0.79,0.48,1.68v3.6l1.95-0.01l26.83-4.09c1.77-2.87,1.75-9.98,1.93-13.43h1.44V57.2
	c0-0.99-0.62-3.36,0.24-3.36c0.65,0,0.66,0.11,1.2,0.24c-0.37-4.46-1-8.17-1.92-12.48h1.44c0-2.56-1.14-4.26-2.16-6.96h0.96
	c0-1.26-1.79-4.97-2.64-5.28v-1.2l0.84-0.06l-2.28-5.22c-1.82-1.92-4.09-2.65-4.06-3.65c0-0.83-0.18-0.93-0.24-1.68l-1.52-0.48
	l0.08-0.24l-2.92,0.32c-1.12,0-1.17-0.36-1.96-0.36c-0.77,0-8.1-1.58-8.82-2.06h-0.72c-0.61,0.16-2.99,1.3-3.26,1.78
	c-1.39,2.4-0.59,0.99-2.43,2.61c-0.94,0.84-2.03,1.41-2.85,2.19c-0.65,0.62-2.09,2.24-2.5,2.54c0,1.93,1.92,4.71,3.12,5.52v-0.72
	c0.71-0.48,2.79-0.92,3.94-0.92c2.06,0.19,1.01,0.46,2.54,0.92c1.97,0.59,1.95,3.07,2.36,4.57l0.04,1.43
	c-0.54,0.13-0.55,0.24-1.2,0.24h-0.96l-3.78,0.63l-1.26,0.03l-1.15,0.6l1.26,2.78c0.1,0.33,1.08,0.53,1.29,0.5
	c4.29-0.56,6.01-0.4,8.68-0.14c1.7,0,2.63-0.95,3.83-1.05c-0.11,0.97-1.91,2.4-2.88,2.4H52.2c-4.69,0-5.2-1.42-7.44,1.92
	c0.29,0.43,0.48,0.42,0.48,0.96c0,0.69-0.45,0.6-0.48,1.92l2.13-0.58c-0.14,1.62-4.59,2.21-5.73,2.98l-5.77,0.67l-6.23,0.05v-0.48
	H28.2l-3.6-0.28l0-0.44h-0.96c-1.31,0-4.89-2.29-6.24-2.4v-0.72h0.72c0.42,0,2.63,0.76,2.88,1.44h0.72c0.33,0,1.66,0.78,1.92,0.96
	l5.27,0.76l7.93-0.04c0.54,0,0.53-0.19,0.96-0.48l3.36-0.24c1.02-0.68,3.12-1.54,3.12-3.12c0-0.07-0.17-0.44-0.24-0.72l-3.36,0.27
	c-0.44,0.26-0.42,0.45-0.96,0.45h-6.96l-4.08-0.28l-1.81-1.25l-0.33-0.01l-0.5-0.09l-0.53-0.11l-3.43-2.17l-0.31-0.39l-0.22-0.2
	c0,0.88-0.28-1.81-0.59-0.65l-0.68-0.21l-1.25-1.16l-3.07-1.75L15,34.88l-0.48,0.96h0.72l0.5,0.31l0.12-0.7
	c-0.46-2.04-1.76,1.95-3.02,2.07l-0.96,0.96v0.72 M49.08,21.41c-0.78,0-1.42-0.63-1.42-1.41c0-0.77,0.64-1.41,1.42-1.41
	s1.42,0.63,1.42,1.41C50.51,20.77,49.87,21.41,49.08,21.41z"/>
<g>
	<path class="st3" d="M19.02,32.08l4.77,3.42l0.09-0.14c-0.13-0.54-0.24-0.55-0.24-1.2v-1.68c0-1.34,0.93-1.57,1.14-2.75L44.54,2.79
		l-2.82,0.7l-1.73,0.94l-2.33,1.96C31.38,14.88,25.39,23.1,19.02,32.08z"/>
	<path class="st3" d="M26.28,34.16l9.84-12.72c1.46-2.19,2.82-4.2,4.47-6.33c1.33-1.73,4.65-6.55,4.65-8.79l-0.16-2.77l-5.33,7.36
		L26.66,28.3c-0.69,0.64-2.01,3.2-2.3,3.94l0.13,3.3L26.28,34.16z"/>
</g>
<path class="st0" d="M15,34.88l0.72,0.48l6.24,4.32l3.53,2.14l1.03,0.26H27l1.67-2.15l-0.13-0.6l-2.74-1.8
	c-0.64-0.72-2.08-1.26-1.92-2.16L19.08,32c-1.32,0.49-5.39-2.76-5.11-2.45c-0.77,0.53-1.85,1.49-1.85,2.45v0.24
	C12.12,32.87,14.3,33.84,15,34.88z"/>
<polygon class="st1" points="12.84,37.52 12.84,38.04 16.57,41.24 16.91,41.04 15.24,35.84 14.52,35.84 "/>
<path class="st1" d="M21.96,39.68l-6.24-4.32l2.13,3.26l1.71,3.46h0.72c0.31-1.16,0.96-0.8,0.96-1.68v-0.72H21.96z"/>
<polygon class="st1" points="11.88,39.2 11.2,39.45 10.92,40.88 16.14,43.87 16.35,43.64 12.83,38.91 "/>
<path class="kruunu" d="M48.23,14.68c0.63-3.74,0.93-7.62,0.8-11.61c2.54,0.8,4.64,2.16,5.8,4.72c-5.11,5.66,2.83,7,3.71,3.7
	l-0.09-3.16c1.19-0.96,2.53-1.96,4.38-2.22c0.44-0.06,0.96,0.11,1.24,0.46c1.2,1.47,1.48,3.4,1.37,5.38
	c-6.28,3.93,2.56,8.1,2.92,2.88l0.09-1.75c2.89-0.09,5.42,0.01,7.21,1.18c0.35,0.23-0.02,0.91-0.32,1.2
	c-2.74,2.63-5.03,5.15-7.03,7.87l-3.77-1.56l-1.7,1.65c1.91-5.6-0.02-6.91-5.51-5.15l-4.43-1.84L48.23,14.68z"/>
</svg>
