<svg xmlns="http://www.w3.org/2000/svg" viewBox="-265 350 80 100"><g><path class="logo-hilt" d="M-254.42 412.4l-4.7-4.1-.95.13v.72c-.3.43-.48.42-.48.96v2.4c0 .76.76 1.45 1.68 1.45h1.2c1.87 0 2.22-.86 3.25-1.55z"/><path class="logo-details" d="M-223.1 392.73l-.06-1.7 1.93 1.57-.6.25zM-222.87 387.64l1.03-2.46 1.62 1.74 1.43-1.7c-.77-1.65-5.68-.15-6.3.02l2.23 2.4z"/><path class="logo-details" d="M-221.54 390.5c1.96 0 2.86 1.7 4.56 1.7h.5c.96 0 1-.4 1-1.3 0-1.65-3.85-2.54-5.73-2.54-2.68 0-7.66-.55-7.72-4.2-.35-.67-.64-.14-.96 0-5.54 6.46 4.53 6.24 8.34 6.34z"/><path class="logo-body" d="M-254.08 397.88l-2.27 1.4c-.13-.2-4.45 5.5-4.45 7v.48c0 .88.37 1.16.72 1.68h.72l4.8 4.08 5.04 2.4v.72c0 .83-.18.93-.24 1.68l4.77-.34c1.76.24 3.2-.08 2.68 1.78V420l4.56-.28h3.12v1.68c0 .55.17.72.72.72h.72c1.06 0 2.4-.8 3.84-.96h1.68c2.43 0 4.17.15 6.5.23 1.12.03 5.25 1.44 5.26 1.44 2 0 3.15-2.62 5.04-3.12l.2.18-3.94 4-7.8-1.57-3.82.02c-1.3 0-.47 1.9-.47 3.1 0 1.25-.23 3.38.94 3.38h1.02l-.3 1.68c.36.52.48.8.48 1.7v3.6l1.95-.02 26.82-4.1c1.77-2.86 1.75-9.97 1.93-13.42h1.44v-4.06c0-1-.63-3.36.23-3.36.65 0 .66.1 1.2.24-.37-4.46-1-8.17-1.92-12.48h1.45c0-2.56-1.14-4.26-2.16-6.96h.95c0-1.26-1.8-4.97-2.64-5.28v-1.2l.85-.06-2.28-5.22c-1.82-1.92-4.1-2.65-4.06-3.65 0-.83-.17-.93-.23-1.68l-1.52-.48.08-.24-2.92.32c-1.1 0-1.16-.36-1.95-.36-.77 0-8.1-1.6-8.82-2.07h-.72c-.6.16-2.98 1.3-3.25 1.78-1.4 2.4-.6 1-2.43 2.62-.94.84-2.03 1.4-2.85 2.2-.65.6-2.1 2.23-2.5 2.53 0 1.93 1.92 4.7 3.12 5.52v-.72c.7-.48 2.78-.92 3.93-.92 2.06.2 1 .46 2.54.92 1.97.6 1.95 3.07 2.36 4.57l.04 1.43c-.54.13-.55.24-1.2.24h-.96l-3.77.62-1.26.03-1.15.6 1.26 2.78c.1.33 1.08.53 1.3.5 4.28-.56 6-.4 8.67-.14 1.7 0 2.63-.96 3.83-1.06-.1.97-1.9 2.4-2.88 2.4h-.7c-4.7 0-5.2-1.42-7.44 1.92.3.43.48.42.48.96 0 .7-.45.6-.48 1.92l2.13-.58c-.15 1.62-4.6 2.2-5.74 2.98l-5.77.67-6.24.06v-.48h-.96l-3.6-.28v-.44h-.96c-1.3 0-4.9-2.3-6.24-2.4v-.72h.72c.42 0 2.63.76 2.88 1.44h.72c.33 0 1.66.78 1.92.96l5.27.76 7.94-.04c.54 0 .53-.2.96-.48l3.36-.24c1.02-.68 3.12-1.54 3.12-3.12 0-.07-.17-.44-.24-.72l-3.36.27c-.44.26-.42.45-.96.45h-6.96l-4.08-.28-1.8-1.25-.34-.02-.5-.1-.53-.1-3.42-2.17-.3-.38-.23-.2c0 .88-.28-1.8-.6-.65l-.67-.2-1.25-1.17-3.07-1.75-.96-.37-.48.96h.72l.5.3.12-.7c-.46-2.03-1.76 1.96-3.02 2.08l-.96.96v.72"/><g><path class="logo-eye" d="M-214.5 377c0 .77-.63 1.4-1.42 1.4-.78 0-1.42-.62-1.42-1.4 0-.77.64-1.4 1.42-1.4s1.42.62 1.42 1.4z"/></g><path class="logo-blade" d="M-245.98 389.08l4.77 3.42.08-.14c-.13-.54-.24-.55-.24-1.2v-1.68c0-1.34.93-1.57 1.14-2.75l19.76-26.94-2.82.7-1.73.93-2.34 1.96c-6.28 8.48-12.27 16.7-18.64 25.68z"/><path class="logo-blade" d="M-238.72 391.16l9.84-12.72c1.46-2.2 2.82-4.2 4.47-6.33 1.32-1.72 4.64-6.54 4.64-8.78l-.16-2.77-5.33 7.36-13.1 17.4c-.68.64-2 3.2-2.3 3.94l.14 3.3 1.78-1.38z"/><path class="logo-hilt" d="M-250 391.88l.72.48 6.24 4.32 3.53 2.14 1.02.26h.48l1.67-2.15-.13-.6-2.74-1.8c-.64-.72-2.08-1.26-1.92-2.16l-4.8-3.37c-1.32.5-5.4-2.76-5.1-2.45-.78.53-1.86 1.5-1.86 2.45v.24c0 .63 2.18 1.6 2.88 2.64z"/><path class="logo-details" d="M-252.16 394.52v.52l3.73 3.2.34-.2-1.66-5.2h-.72zM-243.04 396.68l-6.24-4.32 2.13 3.26 1.7 3.46h.73c.3-1.16.96-.8.96-1.68v-.72h.72zM-253.12 396.2l-.68.25-.28 1.43 5.22 3 .2-.24-3.5-4.73z"/><path class="logo-crown" d="M-216.77 371.68c.63-3.74.93-7.62.8-11.6 2.54.8 4.64 2.15 5.8 4.7-5.1 5.67 2.83 7 3.7 3.7l-.08-3.15c1.2-.96 2.53-1.96 4.38-2.22.44-.05.96.12 1.24.47 1.2 1.47 1.48 3.4 1.37 5.38-6.28 3.93 2.56 8.1 2.92 2.88l.1-1.75c2.88-.1 5.4 0 7.2 1.18.35.23-.02.9-.32 1.2-2.74 2.63-5.03 5.15-7.03 7.87l-3.76-1.56-1.7 1.65c1.9-5.6-.02-6.9-5.5-5.15l-4.44-1.84-4.67-1.75z"/></g></svg>
